<svg xmlns="http://www.w3.org/2000/svg" viewBox="0 0 1280 640" width="1280" height="640" role="img" aria-label="AmberBeam — dual-pane FTP and SFTP client for macOS, Windows, Linux and Docker">
  <title>AmberBeam — dual-pane FTP and SFTP client</title>

  <defs>
    <linearGradient id="page" x1="0" y1="0" x2="1" y2="1">
      <stop offset="0" stop-color="#12141c"/>
      <stop offset="1" stop-color="#0a0b10"/>
    </linearGradient>
    <linearGradient id="brand" x1="0" y1="0" x2="0" y2="1">
      <stop offset="0" stop-color="#f7a824"/>
      <stop offset="1" stop-color="#c4720a"/>
    </linearGradient>
    <radialGradient id="glow" cx="0.5" cy="0.5" r="0.5">
      <stop offset="0" stop-color="#e08b12" stop-opacity="0.26"/>
      <stop offset="1" stop-color="#e08b12" stop-opacity="0"/>
    </radialGradient>
    <linearGradient id="scrim" x1="0" y1="0" x2="1" y2="0">
      <stop offset="0" stop-color="#0f1118" stop-opacity="1"/>
      <stop offset="0.44" stop-color="#0f1118" stop-opacity="1"/>
      <stop offset="0.56" stop-color="#0f1118" stop-opacity="0.55"/>
      <stop offset="0.65" stop-color="#0f1118" stop-opacity="0"/>
    </linearGradient>
    <filter id="cardshadow" x="-30%" y="-30%" width="160%" height="160%">
      <feDropShadow dx="0" dy="22" stdDeviation="34" flood-color="#000" flood-opacity="0.62"/>
    </filter>
  </defs>

  <g font-family="-apple-system, BlinkMacSystemFont, 'Segoe UI', Inter, sans-serif">
<rect x="0" y="0" width="1280" height="640" rx="0" fill="url(#page)"/><ellipse cx="1010" cy="150" rx="520" ry="380" fill="url(#glow)"/>
<g filter="url(#cardshadow)"><rect x="430" y="48" width="850" height="552" rx="18" fill="#151821" stroke="#262c3a"/></g><path d="M430 66a18 18 0 0 1 18-18h814a18 18 0 0 1 18 18v26H430z" fill="#1b1f2a"/><circle cx="456" cy="70" r="6" fill="#ff5f57"/><circle cx="476" cy="70" r="6" fill="#febc2e"/><circle cx="496" cy="70" r="6" fill="#28c840"/><text x="524" y="75" fill="#9aa2b5" font-size="13" font-weight="500">AmberBeam</text><text x="604" y="75" fill="#6b7386" font-size="13">beispiel.de · SFTP</text><line x1="430" y1="92" x2="1280" y2="92" stroke="#262c3a" stroke-width="1"/><rect x="430" y="92" width="850" height="84" rx="0" fill="#12151d"/><text x="446" y="109" fill="#6b7386" font-size="9.5" font-weight="600">SERVER-LOG</text><text x="1264" y="109" fill="#6b7386" font-size="9.5" text-anchor="end" font-family="ui-monospace, SFMono-Regular, Menlo, monospace">F4  Raw-Befehle</text><text x="446" y="130" fill="#6b7386" font-size="10.5" font-family="ui-monospace, SFMono-Regular, Menlo, monospace">17:02:11</text><text x="506" y="130" fill="#e08b12" font-size="10.5" font-family="ui-monospace, SFMono-Regular, Menlo, monospace">&#8594;</text><text x="526" y="130" fill="#9aa2b5" font-size="10.5" font-family="ui-monospace, SFMono-Regular, Menlo, monospace">MLSD /var/www/html</text><text x="446" y="148" fill="#6b7386" font-size="10.5" font-family="ui-monospace, SFMono-Regular, Menlo, monospace">17:02:12</text><text x="506" y="148" fill="#e08b12" font-size="10.5" font-family="ui-monospace, SFMono-Regular, Menlo, monospace">&#8592;</text><text x="526" y="148" fill="#35c489" font-size="10.5" font-family="ui-monospace, SFMono-Regular, Menlo, monospace">226 Directory send OK</text><text x="446" y="166" fill="#6b7386" font-size="10.5" font-family="ui-monospace, SFMono-Regular, Menlo, monospace">17:02:19</text><text x="506" y="166" fill="#e08b12" font-size="10.5" font-family="ui-monospace, SFMono-Regular, Menlo, monospace">&#8594;</text><text x="526" y="166" fill="#9aa2b5" font-size="10.5" font-family="ui-monospace, SFMono-Regular, Menlo, monospace">STOR /var/www/html/stil.css</text><line x1="430" y1="176" x2="1280" y2="176" stroke="#262c3a" stroke-width="1"/><rect x="430" y="176" width="425" height="22" rx="0" fill="#1b1f2a"/><text x="444" y="191" fill="#6b7386" font-size="9.5" font-weight="600">LOKAL</text><text x="843" y="191" fill="#6b7386" font-size="9.5" text-anchor="end" font-family="ui-monospace, SFMono-Regular, Menlo, monospace">~/Projekte/website</text><line x1="430" y1="198" x2="855" y2="198" stroke="#262c3a" stroke-width="1"/><rect x="430" y="198" width="155" height="228" rx="0" fill="#1b1f2a"/><line x1="585" y1="198" x2="585" y2="426" stroke="#262c3a" stroke-width="1"/><text x="439" y="218" fill="#6b7386" font-size="8">▾</text><text x="450" y="218" fill="#e08b12" font-size="10">Benutzer</text><text x="449" y="240" fill="#6b7386" font-size="8">▾</text><text x="460" y="240" fill="#e08b12" font-size="10">dennis</text><text x="459" y="262" fill="#6b7386" font-size="8">▾</text><text x="470" y="262" fill="#e08b12" font-size="10">Projekte</text><text x="469" y="284" fill="#6b7386" font-size="8">▾</text><text x="480" y="284" fill="#e08b12" font-size="10">website</text><text x="469" y="306" fill="#6b7386" font-size="8">▸</text><text x="480" y="306" fill="#6b7386" font-size="10">archiv</text><text x="459" y="328" fill="#6b7386" font-size="8">▸</text><text x="470" y="328" fill="#6b7386" font-size="10">Bilder</text><path d="M598 205h6l4 4v7a1.4 1.4 0 0 1-1.4 1.4H598A1.4 1.4 0 0 1 596.6 216V206.4A1.4 1.4 0 0 1 598 205z" fill="none" stroke="#6b7386" stroke-width="1.4" stroke-linejoin="round"/><text x="617" y="215" fill="#9aa2b5" font-size="11">index.html</text><text x="843" y="215" fill="#6b7386" font-size="10" text-anchor="end" font-family="ui-monospace, SFMono-Regular, Menlo, monospace">4,2 KB</text><line x1="585" y1="224" x2="855" y2="224" stroke="#262c3a" stroke-width="1"/><rect x="585" y="224" width="270" height="26" rx="0" fill="#33270e"/><rect x="585" y="224" width="2" height="26" rx="0" fill="#e08b12"/><path d="M598 231h6l4 4v7a1.4 1.4 0 0 1-1.4 1.4H598A1.4 1.4 0 0 1 596.6 242V232.4A1.4 1.4 0 0 1 598 231z" fill="none" stroke="#6b7386" stroke-width="1.4" stroke-linejoin="round"/><text x="617" y="241" fill="#e8eaf0" font-size="11">stil.css</text><text x="843" y="241" fill="#6b7386" font-size="10" text-anchor="end" font-family="ui-monospace, SFMono-Regular, Menlo, monospace">18 KB</text><line x1="585" y1="250" x2="855" y2="250" stroke="#262c3a" stroke-width="1"/><path d="M598 257h6l4 4v7a1.4 1.4 0 0 1-1.4 1.4H598A1.4 1.4 0 0 1 596.6 268V258.4A1.4 1.4 0 0 1 598 257z" fill="none" stroke="#6b7386" stroke-width="1.4" stroke-linejoin="round"/><text x="617" y="267" fill="#9aa2b5" font-size="11">skript.js</text><text x="843" y="267" fill="#6b7386" font-size="10" text-anchor="end" font-family="ui-monospace, SFMono-Regular, Menlo, monospace">7,1 KB</text><line x1="585" y1="276" x2="855" y2="276" stroke="#262c3a" stroke-width="1"/><path d="M598 283h6l4 4v7a1.4 1.4 0 0 1-1.4 1.4H598A1.4 1.4 0 0 1 596.6 294V284.4A1.4 1.4 0 0 1 598 283z" fill="none" stroke="#6b7386" stroke-width="1.4" stroke-linejoin="round"/><text x="617" y="293" fill="#9aa2b5" font-size="11">impressum.html</text><text x="843" y="293" fill="#6b7386" font-size="10" text-anchor="end" font-family="ui-monospace, SFMono-Regular, Menlo, monospace">3,4 KB</text><line x1="585" y1="302" x2="855" y2="302" stroke="#262c3a" stroke-width="1"/><path d="M598 309h6l4 4v7a1.4 1.4 0 0 1-1.4 1.4H598A1.4 1.4 0 0 1 596.6 320V310.4A1.4 1.4 0 0 1 598 309z" fill="none" stroke="#6b7386" stroke-width="1.4" stroke-linejoin="round"/><text x="617" y="319" fill="#9aa2b5" font-size="11">favicon.ico</text><text x="843" y="319" fill="#6b7386" font-size="10" text-anchor="end" font-family="ui-monospace, SFMono-Regular, Menlo, monospace">15 KB</text><line x1="585" y1="328" x2="855" y2="328" stroke="#262c3a" stroke-width="1"/><path d="M598 335h6l4 4v7a1.4 1.4 0 0 1-1.4 1.4H598A1.4 1.4 0 0 1 596.6 346V336.4A1.4 1.4 0 0 1 598 335z" fill="none" stroke="#6b7386" stroke-width="1.4" stroke-linejoin="round"/><text x="617" y="345" fill="#9aa2b5" font-size="11">liesmich.md</text><text x="843" y="345" fill="#6b7386" font-size="10" text-anchor="end" font-family="ui-monospace, SFMono-Regular, Menlo, monospace">1,9 KB</text><line x1="585" y1="354" x2="855" y2="354" stroke="#262c3a" stroke-width="1"/><path d="M597 370v-7a1.6 1.6 0 0 1 1.6-1.6h3.4l1.6 2h5.8a1.6 1.6 0 0 1 1.6 1.6v5a1.6 1.6 0 0 1-1.6 1.6H598.6A1.6 1.6 0 0 1 597 370z" fill="none" stroke="#e08b12" stroke-width="1.4" stroke-linejoin="round"/><text x="617" y="371" fill="#9aa2b5" font-size="11">bilder</text><text x="843" y="371" fill="#6b7386" font-size="10" text-anchor="end" font-family="ui-monospace, SFMono-Regular, Menlo, monospace">—</text><line x1="585" y1="380" x2="855" y2="380" stroke="#262c3a" stroke-width="1"/><path d="M597 396v-7a1.6 1.6 0 0 1 1.6-1.6h3.4l1.6 2h5.8a1.6 1.6 0 0 1 1.6 1.6v5a1.6 1.6 0 0 1-1.6 1.6H598.6A1.6 1.6 0 0 1 597 396z" fill="none" stroke="#e08b12" stroke-width="1.4" stroke-linejoin="round"/><text x="617" y="397" fill="#9aa2b5" font-size="11">schriften</text><text x="843" y="397" fill="#6b7386" font-size="10" text-anchor="end" font-family="ui-monospace, SFMono-Regular, Menlo, monospace">—</text><line x1="585" y1="406" x2="855" y2="406" stroke="#262c3a" stroke-width="1"/><rect x="855" y="176" width="425" height="22" rx="0" fill="#1b1f2a"/><text x="869" y="191" fill="#6b7386" font-size="9.5" font-weight="600">SERVER</text><text x="1268" y="191" fill="#6b7386" font-size="9.5" text-anchor="end" font-family="ui-monospace, SFMono-Regular, Menlo, monospace">/var/www/html</text><line x1="855" y1="198" x2="1280" y2="198" stroke="#262c3a" stroke-width="1"/><rect x="855" y="198" width="155" height="228" rx="0" fill="#1b1f2a"/><line x1="1010" y1="198" x2="1010" y2="426" stroke="#262c3a" stroke-width="1"/><text x="864" y="218" fill="#6b7386" font-size="8">▾</text><text x="875" y="218" fill="#e08b12" font-size="10">/</text><text x="874" y="240" fill="#6b7386" font-size="8">▸</text><text x="885" y="240" fill="#6b7386" font-size="10">etc</text><text x="874" y="262" fill="#6b7386" font-size="8">▾</text><text x="885" y="262" fill="#e08b12" font-size="10">var</text><text x="884" y="284" fill="#6b7386" font-size="8">▸</text><text x="895" y="284" fill="#6b7386" font-size="10">log</text><text x="884" y="306" fill="#6b7386" font-size="8">▾</text><text x="895" y="306" fill="#e08b12" font-size="10">www</text><text x="894" y="328" fill="#6b7386" font-size="8">▾</text><text x="905" y="328" fill="#e08b12" font-size="10">html</text><path d="M1023 205h6l4 4v7a1.4 1.4 0 0 1-1.4 1.4H1023A1.4 1.4 0 0 1 1021.6 216V206.4A1.4 1.4 0 0 1 1023 205z" fill="none" stroke="#6b7386" stroke-width="1.4" stroke-linejoin="round"/><text x="1042" y="215" fill="#9aa2b5" font-size="11">index.html</text><text x="1268" y="215" fill="#6b7386" font-size="10" text-anchor="end" font-family="ui-monospace, SFMono-Regular, Menlo, monospace">3,9 KB</text><line x1="1010" y1="224" x2="1280" y2="224" stroke="#262c3a" stroke-width="1"/><path d="M1023 231h6l4 4v7a1.4 1.4 0 0 1-1.4 1.4H1023A1.4 1.4 0 0 1 1021.6 242V232.4A1.4 1.4 0 0 1 1023 231z" fill="none" stroke="#6b7386" stroke-width="1.4" stroke-linejoin="round"/><text x="1042" y="241" fill="#9aa2b5" font-size="11">stil.css</text><text x="1268" y="241" fill="#6b7386" font-size="10" text-anchor="end" font-family="ui-monospace, SFMono-Regular, Menlo, monospace">17 KB</text><line x1="1010" y1="250" x2="1280" y2="250" stroke="#262c3a" stroke-width="1"/><path d="M1023 257h6l4 4v7a1.4 1.4 0 0 1-1.4 1.4H1023A1.4 1.4 0 0 1 1021.6 268V258.4A1.4 1.4 0 0 1 1023 257z" fill="none" stroke="#6b7386" stroke-width="1.4" stroke-linejoin="round"/><text x="1042" y="267" fill="#9aa2b5" font-size="11">skript.js</text><text x="1268" y="267" fill="#6b7386" font-size="10" text-anchor="end" font-family="ui-monospace, SFMono-Regular, Menlo, monospace">7,1 KB</text><line x1="1010" y1="276" x2="1280" y2="276" stroke="#262c3a" stroke-width="1"/><path d="M1023 283h6l4 4v7a1.4 1.4 0 0 1-1.4 1.4H1023A1.4 1.4 0 0 1 1021.6 294V284.4A1.4 1.4 0 0 1 1023 283z" fill="none" stroke="#6b7386" stroke-width="1.4" stroke-linejoin="round"/><text x="1042" y="293" fill="#9aa2b5" font-size="11">.htaccess</text><text x="1268" y="293" fill="#6b7386" font-size="10" text-anchor="end" font-family="ui-monospace, SFMono-Regular, Menlo, monospace">612 B</text><line x1="1010" y1="302" x2="1280" y2="302" stroke="#262c3a" stroke-width="1"/><path d="M1023 309h6l4 4v7a1.4 1.4 0 0 1-1.4 1.4H1023A1.4 1.4 0 0 1 1021.6 320V310.4A1.4 1.4 0 0 1 1023 309z" fill="none" stroke="#6b7386" stroke-width="1.4" stroke-linejoin="round"/><text x="1042" y="319" fill="#9aa2b5" font-size="11">robots.txt</text><text x="1268" y="319" fill="#6b7386" font-size="10" text-anchor="end" font-family="ui-monospace, SFMono-Regular, Menlo, monospace">104 B</text><line x1="1010" y1="328" x2="1280" y2="328" stroke="#262c3a" stroke-width="1"/><path d="M1022 344v-7a1.6 1.6 0 0 1 1.6-1.6h3.4l1.6 2h5.8a1.6 1.6 0 0 1 1.6 1.6v5a1.6 1.6 0 0 1-1.6 1.6H1023.6A1.6 1.6 0 0 1 1022 344z" fill="none" stroke="#e08b12" stroke-width="1.4" stroke-linejoin="round"/><text x="1042" y="345" fill="#9aa2b5" font-size="11">bilder</text><text x="1268" y="345" fill="#6b7386" font-size="10" text-anchor="end" font-family="ui-monospace, SFMono-Regular, Menlo, monospace">—</text><line x1="1010" y1="354" x2="1280" y2="354" stroke="#262c3a" stroke-width="1"/><path d="M1022 370v-7a1.6 1.6 0 0 1 1.6-1.6h3.4l1.6 2h5.8a1.6 1.6 0 0 1 1.6 1.6v5a1.6 1.6 0 0 1-1.6 1.6H1023.6A1.6 1.6 0 0 1 1022 370z" fill="none" stroke="#e08b12" stroke-width="1.4" stroke-linejoin="round"/><text x="1042" y="371" fill="#9aa2b5" font-size="11">alt</text><text x="1268" y="371" fill="#6b7386" font-size="10" text-anchor="end" font-family="ui-monospace, SFMono-Regular, Menlo, monospace">—</text><line x1="1010" y1="380" x2="1280" y2="380" stroke="#262c3a" stroke-width="1"/><path d="M1022 396v-7a1.6 1.6 0 0 1 1.6-1.6h3.4l1.6 2h5.8a1.6 1.6 0 0 1 1.6 1.6v5a1.6 1.6 0 0 1-1.6 1.6H1023.6A1.6 1.6 0 0 1 1022 396z" fill="none" stroke="#e08b12" stroke-width="1.4" stroke-linejoin="round"/><text x="1042" y="397" fill="#9aa2b5" font-size="11">logs</text><text x="1268" y="397" fill="#6b7386" font-size="10" text-anchor="end" font-family="ui-monospace, SFMono-Regular, Menlo, monospace">—</text><line x1="1010" y1="406" x2="1280" y2="406" stroke="#262c3a" stroke-width="1"/><line x1="855" y1="176" x2="855" y2="426" stroke="#343b4d" stroke-width="1"/><line x1="430" y1="426" x2="1280" y2="426" stroke="#262c3a" stroke-width="1"/><rect x="430" y="426" width="850" height="22" rx="0" fill="#1b1f2a"/><text x="444" y="441" fill="#6b7386" font-size="9.5" font-weight="600">WARTESCHLANGE</text><text x="1268" y="441" fill="#6b7386" font-size="9.5" text-anchor="end" font-family="ui-monospace, SFMono-Regular, Menlo, monospace">F8  ein/aus     F9  starten</text><line x1="430" y1="448" x2="1280" y2="448" stroke="#262c3a" stroke-width="1"/><text x="444" y="472" fill="#35c489" font-size="12" font-weight="600" font-family="ui-monospace, SFMono-Regular, Menlo, monospace">&#8593;</text><text x="464" y="472" fill="#9aa2b5" font-size="11">stil.css</text><text x="620" y="472" fill="#6b7386" font-size="10.5" font-family="ui-monospace, SFMono-Regular, Menlo, monospace">/var/www/html/</text><rect x="850" y="465" width="330" height="8" rx="4" fill="#232837"/><rect x="850" y="465" width="330" height="8" rx="4" fill="#35c489"/><text x="1268" y="472" fill="#35c489" font-size="10" text-anchor="end" font-family="ui-monospace, SFMono-Regular, Menlo, monospace">fertig</text><text x="444" y="502" fill="#e08b12" font-size="12" font-weight="600" font-family="ui-monospace, SFMono-Regular, Menlo, monospace">&#8593;</text><text x="464" y="502" fill="#9aa2b5" font-size="11">bilder/logo.svg</text><text x="620" y="502" fill="#6b7386" font-size="10.5" font-family="ui-monospace, SFMono-Regular, Menlo, monospace">/var/www/html/bilder/</text><rect x="850" y="495" width="330" height="8" rx="4" fill="#232837"/><rect x="850" y="495" width="204" height="8" rx="4" fill="#e08b12"/><text x="1268" y="502" fill="#e08b12" font-size="10" text-anchor="end" font-family="ui-monospace, SFMono-Regular, Menlo, monospace">62 %</text><text x="444" y="532" fill="#6b7386" font-size="12" font-weight="600" font-family="ui-monospace, SFMono-Regular, Menlo, monospace">&#8595;</text><text x="464" y="532" fill="#9aa2b5" font-size="11">logs/error.log</text><text x="620" y="532" fill="#6b7386" font-size="10.5" font-family="ui-monospace, SFMono-Regular, Menlo, monospace">~/Projekte/website/</text><rect x="850" y="525" width="330" height="8" rx="4" fill="#232837"/><text x="1268" y="532" fill="#6b7386" font-size="10" text-anchor="end" font-family="ui-monospace, SFMono-Regular, Menlo, monospace">wartet</text><rect x="430" y="570" width="850" height="30" rx="0" fill="#1b1f2a"/><line x1="430" y1="570" x2="1280" y2="570" stroke="#262c3a" stroke-width="1"/><text x="444" y="589" fill="#6b7386" font-size="10" font-family="ui-monospace, SFMono-Regular, Menlo, monospace">F5 Aktualisieren  ·  F6 Fokus  ·  F12 Verbinden</text><text x="1268" y="589" fill="#35c489" font-size="10" text-anchor="end" font-family="ui-monospace, SFMono-Regular, Menlo, monospace">SFTP  ·  8 gleichzeitig</text><rect x="0" y="0" width="900" height="640" rx="0" fill="url(#scrim)"/><rect x="72" y="72" width="76" height="76" rx="24" fill="url(#brand)"/><g fill="none" stroke="#fff" stroke-width="4.2" stroke-linecap="round" stroke-linejoin="round"><path d="M92 110h32"/><path d="M117 100l10 10-10 10"/><path d="M97 92h11" opacity="0.42"/><path d="M91 128h17" opacity="0.42"/></g><text x="168" y="106" fill="#e8eaf0" font-size="30" font-weight="700">AmberBeam</text><text x="168" y="136" fill="#8a91a3" font-size="18">Dual-pane FTP and SFTP</text><text x="72" y="228" fill="#ffffff" font-size="44" font-weight="700">Two panes.</text><text x="72" y="278" fill="#ffffff" font-size="44" font-weight="700">The keyboard in charge.</text><text x="72" y="326" fill="#9aa2b5" font-size="19">Local and remote side by side,</text><text x="72" y="352" fill="#9aa2b5" font-size="19">with the folder tree where it belongs.</text><circle cx="82" cy="404" r="9" fill="none" stroke="#35c489" stroke-width="2.2"/><path d="M78 404l3 3 5.5-6" stroke="#35c489" stroke-width="2.4" fill="none" stroke-linecap="round" stroke-linejoin="round"/><text x="104" y="410" fill="#c8cdda" font-size="17.5">SFTP, FTP and FTPS</text><circle cx="82" cy="442" r="9" fill="none" stroke="#35c489" stroke-width="2.2"/><path d="M78 442l3 3 5.5-6" stroke="#35c489" stroke-width="2.4" fill="none" stroke-linecap="round" stroke-linejoin="round"/><text x="104" y="448" fill="#c8cdda" font-size="17.5">Several files at once, set per server</text><circle cx="82" cy="480" r="9" fill="none" stroke="#35c489" stroke-width="2.2"/><path d="M78 480l3 3 5.5-6" stroke="#35c489" stroke-width="2.4" fill="none" stroke-linecap="round" stroke-linejoin="round"/><text x="104" y="486" fill="#c8cdda" font-size="17.5">Resume a broken transfer mid-file</text><circle cx="82" cy="518" r="9" fill="none" stroke="#35c489" stroke-width="2.2"/><path d="M78 518l3 3 5.5-6" stroke="#35c489" stroke-width="2.4" fill="none" stroke-linecap="round" stroke-linejoin="round"/><text x="104" y="524" fill="#c8cdda" font-size="17.5">Import sites from FileZilla and WinSCP</text><rect x="72" y="562" width="80" height="34" rx="17" fill="#1b1f2a" stroke="#2b3040"/><text x="112.0" y="584" fill="#c8cdda" font-size="15" font-weight="500" text-anchor="middle">macOS</text><rect x="160" y="562" width="92" height="34" rx="17" fill="#1b1f2a" stroke="#2b3040"/><text x="206.0" y="584" fill="#c8cdda" font-size="15" font-weight="500" text-anchor="middle">Windows</text><rect x="260" y="562" width="70" height="34" rx="17" fill="#1b1f2a" stroke="#2b3040"/><text x="295.0" y="584" fill="#c8cdda" font-size="15" font-weight="500" text-anchor="middle">Linux</text><rect x="338" y="562" width="80" height="34" rx="17" fill="#33270e" stroke="#6b4a12"/><text x="378.0" y="584" fill="#f0b429" font-size="15" font-weight="500" text-anchor="middle">Docker</text><rect x="426" y="562" width="96" height="34" rx="17" fill="#1b1f2a" stroke="#2b3040"/><text x="474.0" y="584" fill="#c8cdda" font-size="15" font-weight="500" text-anchor="middle">AGPL-3.0</text>
  </g>
</svg>
